<?xml version="1.0" encoding="UTF-8" standalone="no"?>
<!DOCTYPE svg PUBLIC "-//W3C//DTD SVG 1.1//EN" "http://www.w3.org/Graphics/SVG/1.1/DTD/svg11.dtd">
<svg width="100%" height="100%" viewBox="0 0 200 200" version="1.1" xmlns="http://www.w3.org/2000/svg" xmlns:xlink="http://www.w3.org/1999/xlink" xml:space="preserve" xmlns:serif="http://www.serif.com/" style="fill-rule:evenodd;clip-rule:evenodd;stroke-linejoin:round;stroke-miterlimit:2;">
    <g transform="matrix(1.01273,-1.01273,1.01273,1.01273,-71.2673,82.9351)">
        <path d="M84.809,17.013C98.139,17.013 104.377,21.615 107.096,25.612L109.503,31.154L109.872,36.401C109.638,39.45 108.5,43.172 106.29,47.303C103.135,53.199 97.193,60.917 92.02,69.83C87.978,76.792 84.264,84.604 84.264,92.982C84.264,101.361 87.978,109.172 92.02,116.135C97.193,125.048 103.135,132.766 106.29,138.662C108.5,142.793 109.638,146.514 109.872,149.564L109.503,154.811L107.096,160.353C104.377,164.349 98.139,168.952 84.809,168.952C42.88,168.952 8.839,134.911 8.839,92.982C8.839,51.054 42.88,17.013 84.809,17.013ZM84.809,29.231C49.624,29.231 21.058,57.797 21.058,92.982C21.058,128.167 49.624,156.733 84.809,156.733C119.994,156.733 72.046,128.167 72.046,92.982C72.046,57.797 119.994,29.231 84.809,29.231Z" style="fill:white;"/>
    </g>
</svg>
