<?xml version="1.0" encoding="UTF-8" standalone="no"?>
<!DOCTYPE svg PUBLIC "-//W3C//DTD SVG 1.1//EN" "http://www.w3.org/Graphics/SVG/1.1/DTD/svg11.dtd">
<svg width="100%" height="100%" viewBox="0 0 200 200" version="1.1" xmlns="http://www.w3.org/2000/svg" xmlns:xlink="http://www.w3.org/1999/xlink" xml:space="preserve" xmlns:serif="http://www.serif.com/" style="fill-rule:evenodd;clip-rule:evenodd;stroke-linejoin:round;stroke-miterlimit:2;">
    <g transform="matrix(2.87031,0,0,2.87031,-159.209,-157.806)">
        <path d="M90.307,75.011C98.479,75.011 105.114,81.646 105.114,89.818C105.114,97.99 98.479,104.625 90.307,104.625C82.135,104.625 75.5,97.99 75.5,89.818C75.5,81.646 82.135,75.011 90.307,75.011ZM90.307,81.108C85.5,81.108 81.597,85.011 81.597,89.818C81.597,94.625 85.5,98.528 90.307,98.528C95.114,98.528 99.017,94.625 99.017,89.818C99.017,85.011 95.114,81.108 90.307,81.108Z" style="fill:white;"/>
    </g>
    <g transform="matrix(0.9968,0,0,0.778191,1.59293,-16.8561)">
        <path d="M107.501,32.905L107.501,61.856C107.501,68.062 103.568,73.1 98.723,73.1C93.878,73.1 89.945,68.062 89.945,61.856L89.945,32.905C89.945,26.699 93.878,21.661 98.723,21.661C103.568,21.661 107.501,26.699 107.501,32.905Z" style="fill:white;"/>
    </g>
    <g transform="matrix(0.9968,0,0,0.776737,1.59293,143.22)">
        <path d="M107.501,32.926L107.501,61.835C107.501,68.053 103.568,73.1 98.723,73.1C93.878,73.1 89.945,68.053 89.945,61.835L89.945,32.926C89.945,26.708 93.878,21.661 98.723,21.661C103.568,21.661 107.501,26.708 107.501,32.926Z" style="fill:white;"/>
    </g>
    <g transform="matrix(0.704844,-0.704844,0.54961,0.54961,-52.1999,86.9687)">
        <path d="M107.501,32.918L107.501,61.843C107.501,68.056 103.568,73.1 98.723,73.1C93.878,73.1 89.945,68.056 89.945,61.843L89.945,32.918C89.945,26.705 93.878,21.661 98.723,21.661C103.568,21.661 107.501,26.705 107.501,32.918Z" style="fill:white;"/>
    </g>
    <g transform="matrix(0.704844,-0.704844,0.549714,0.549714,60.9421,200.111)">
        <path d="M107.501,32.916L107.501,61.845C107.501,68.057 103.568,73.1 98.723,73.1C93.878,73.1 89.945,68.057 89.945,61.845L89.945,32.916C89.945,26.704 93.878,21.661 98.723,21.661C103.568,21.661 107.501,26.704 107.501,32.916Z" style="fill:white;"/>
    </g>
    <g transform="matrix(9.43229e-17,-0.9968,0.776737,8.71613e-17,-16.8246,198.407)">
        <path d="M107.501,32.926L107.501,61.835C107.501,68.053 103.568,73.1 98.723,73.1C93.878,73.1 89.945,68.053 89.945,61.835L89.945,32.926C89.945,26.708 93.878,21.661 98.723,21.661C103.568,21.661 107.501,26.708 107.501,32.926Z" style="fill:white;"/>
    </g>
    <g transform="matrix(9.43852e-17,-0.9968,0.778192,8.72504e-17,143.114,198.407)">
        <path d="M107.501,32.905L107.501,61.856C107.501,68.062 103.568,73.1 98.723,73.1C93.878,73.1 89.945,68.062 89.945,61.856L89.945,32.905C89.945,26.699 93.878,21.661 98.723,21.661C103.568,21.661 107.501,26.699 107.501,32.905Z" style="fill:white;"/>
    </g>
    <g transform="matrix(-0.704844,-0.704844,0.550433,-0.550433,86.9509,252.218)">
        <path d="M107.501,32.901L107.501,61.86C107.501,68.064 103.568,73.1 98.723,73.1C93.878,73.1 89.945,68.064 89.945,61.86L89.945,32.901C89.945,26.697 93.878,21.661 98.723,21.661C103.568,21.661 107.501,26.697 107.501,32.901Z" style="fill:white;"/>
    </g>
    <g transform="matrix(-0.704844,-0.704844,0.54961,-0.54961,200.118,139.05)">
        <path d="M107.501,32.918L107.501,61.843C107.501,68.056 103.568,73.1 98.723,73.1C93.878,73.1 89.945,68.056 89.945,61.843L89.945,32.918C89.945,26.705 93.878,21.661 98.723,21.661C103.568,21.661 107.501,26.705 107.501,32.918Z" style="fill:white;"/>
    </g>
</svg>
