<?xml version="1.0" encoding="utf-8"?>
<!-- Generator: Adobe Illustrator 15.1.0, SVG Export Plug-In . SVG Version: 6.00 Build 0)  -->
<!DOCTYPE svg PUBLIC "-//W3C//DTD SVG 1.1//EN" "http://www.w3.org/Graphics/SVG/1.1/DTD/svg11.dtd">
<svg version="1.1" id="Ebene_1" xmlns="http://www.w3.org/2000/svg" xmlns:xlink="http://www.w3.org/1999/xlink" x="0px" y="0px"
	 width="163.52px" height="200px" viewBox="0 0 163.52 200" enable-background="new 0 0 163.52 200" xml:space="preserve">
<path fill="#FFFFFF" d="M163.513,162.111c0.03-0.803-0.039-1.543-0.177-2.232c-2.877-24.093-37.579-31.597-56.924-34.259
	c-17.185-2.364-34.385-2.059-51.547,0.303c-13.512,1.858-27.457,5.623-39.169,12.801c-8.449,5.178-16.06,13.635-15.682,24.125
	c0.394,10.934,9.168,18.798,17.985,23.891c12.417,7.173,26.997,10.074,41.02,12.003c17.098,2.352,34.496,1.704,51.523-0.855
	c18.424-2.771,50.065-11.057,52.8-33.575C163.477,163.633,163.543,162.903,163.513,162.111z M145.121,164.358
	c-0.57,1.044-1.824,2.333-3.254,3.64c-3.752,3.431-9.022,5.617-13.729,7.36c-14.74,5.457-30.714,7.087-46.326,7.177
	c-15.719,0.093-31.538-1.954-46.407-7.166c-4.49-1.573-9.226-3.734-12.978-6.703c-1.504-1.189-2.891-2.567-3.583-3.56
	c-1.178-1.69-1.174-1.925-1.212-2.995c-0.031-0.882,0.214-1.405,0.743-2.373c0.571-1.045,1.825-2.333,3.254-3.64
	c3.753-3.432,9.022-5.617,13.731-7.36c14.74-5.458,30.713-7.087,46.325-7.178c15.719-0.092,31.538,1.954,46.408,7.166
	c4.489,1.574,9.225,3.735,12.977,6.703c1.505,1.19,2.893,2.568,3.584,3.561c1.179,1.689,1.174,1.924,1.211,2.995
	C145.831,162.884,145.665,163.361,145.121,164.358z"/>
<path fill="#FFFFFF" d="M137.976,56.24c0.007-0.385-0.012-0.756-0.044-1.115C136.93,27.311,116.22,3.7,88.244,0.382
	C60.261-2.935,34.108,15.667,27.138,42.76c-7.214,28.04,9.246,55.679,35.258,66.182c26.078,10.53,56.711-2.86,69.383-27.115
	c3.944-7.55,5.858-15.969,6.147-24.444C137.964,57.015,137.982,56.636,137.976,56.24z M81.812,94.754
	C60.503,95.113,43.521,77.052,43.169,56.24c-0.359-21.308,17.703-38.29,38.515-38.642c21.308-0.359,38.292,17.702,38.641,38.514
	C119.967,77.418,103.163,94.394,81.812,94.754z"/>
</svg>
