<?xml version="1.0" encoding="UTF-8" standalone="no"?>
<!DOCTYPE svg PUBLIC "-//W3C//DTD SVG 1.1//EN" "http://www.w3.org/Graphics/SVG/1.1/DTD/svg11.dtd">
<svg width="100%" height="100%" viewBox="0 0 200 200" version="1.1" xmlns="http://www.w3.org/2000/svg" xmlns:xlink="http://www.w3.org/1999/xlink" xml:space="preserve" xmlns:serif="http://www.serif.com/" style="fill-rule:evenodd;clip-rule:evenodd;stroke-linejoin:round;stroke-miterlimit:2;">
    <g transform="matrix(0.878356,0,0,1.02209,10.8336,5.00497)">
        <path d="M215.364,41.577L215.364,100.28C215.364,125.93 191.132,146.754 161.286,146.754L41.744,146.754C11.898,146.754 -12.334,125.93 -12.334,100.28L-12.334,41.577C-12.334,15.927 11.898,-4.897 41.744,-4.897L161.286,-4.897C191.132,-4.897 215.364,15.927 215.364,41.577ZM195.441,41.577C195.441,25.377 180.136,12.225 161.286,12.225L41.744,12.225C22.894,12.225 7.59,25.377 7.59,41.577L7.59,100.28C7.59,116.48 22.894,129.632 41.744,129.632L161.286,129.632C180.136,129.632 195.441,116.48 195.441,100.28L195.441,41.577Z" style="fill:white;"/>
    </g>
    <g transform="matrix(0.93159,0,0,1.42308,8.93447,-61.6718)">
        <path d="M107.145,148.844L107.145,183.777C107.145,185.474 105.041,186.851 102.449,186.851L93.057,186.851C90.465,186.851 88.36,185.474 88.36,183.777L88.36,148.844C88.36,147.147 90.465,145.77 93.057,145.77L102.449,145.77C105.041,145.77 107.145,147.147 107.145,148.844Z" style="fill:white;"/>
    </g>
    <g transform="matrix(1,0,0,0.986931,3.73949,2.76881)">
        <path d="M145.067,190.977C145.067,195.87 141.146,199.843 136.317,199.843L56.204,199.843C51.375,199.843 47.454,195.87 47.454,190.977C47.454,186.084 51.375,182.111 56.204,182.111L136.317,182.111C141.146,182.111 145.067,186.084 145.067,190.977Z" style="fill:white;"/>
    </g>
</svg>
