<?xml version="1.0" encoding="utf-8"?>
<!-- Generator: Adobe Illustrator 15.1.0, SVG Export Plug-In . SVG Version: 6.00 Build 0)  -->
<!DOCTYPE svg PUBLIC "-//W3C//DTD SVG 1.1//EN" "http://www.w3.org/Graphics/SVG/1.1/DTD/svg11.dtd">
<svg version="1.1" id="Ebene_1" xmlns="http://www.w3.org/2000/svg" xmlns:xlink="http://www.w3.org/1999/xlink" x="0px" y="0px"
	 width="627px" height="628px" viewBox="0 0 627 628" enable-background="new 0 0 627 628" xml:space="preserve">
<path fill="#FFFFFF" d="M618.5,527.5L503,402v34.25l-59.25-32.75V277.25L335,214v-67.75l30.75,17.25L313.5,0l-53,163.5l31.5-17
	v66.75L182,277v125.75l-57.75,33.5V402L9,527.5L176.25,492l-29.75-18l57-34.25l110,64.25l109.25-64.75l57.5,34.25l-29,18.5
	L618.5,527.5z M403.75,403.5l-90.25,52.75l-91-53V301l91-52.5l90.25,52.75V403.5z"/>
<polygon fill="#FFFFFF" points="246.75,532.25 313.5,571.25 380.25,532.25 449.75,548 313.5,628 176.75,548 "/>
<polygon fill="#FFFFFF" points="211.75,136.5 75,214.75 75,372.25 123.75,318.75 123.5,242.5 189.25,204 "/>
<polygon fill="#FFFFFF" points="415,136.5 551.5,215 551.5,372.25 502.75,318.75 502.25,242.25 437,203.75 "/>
</svg>
